<svg width="367" height="88" viewBox="0 0 367 88" fill="none" xmlns="http://www.w3.org/2000/svg">
<g filter="url(#filter0_d_1_4)">
<path d="M32.784 69.12C30.16 69.12 26.896 67.552 22.992 64.416C20.24 63.968 17.872 63.36 15.888 62.592C13.968 61.888 12.368 61.024 11.088 60C9.296 58.464 7.728 56.416 6.384 53.856C5.04 51.296 4.368 48.832 4.368 46.464C4.368 44.672 4.784 43.072 5.616 41.664C7.536 38.272 9.968 36.576 12.912 36.576C15.152 36.576 16.464 38.464 16.848 42.24C17.296 45.76 17.648 48.576 17.904 50.688C18.224 52.736 18.48 54.08 18.672 54.72C19.632 57.856 21.264 60.512 23.568 62.688C26.256 63.264 29.168 63.552 32.304 63.552C39.216 63.552 45.84 62.24 52.176 59.616C54.864 58.464 57.488 56.96 60.048 55.104C62.608 53.248 64.72 51.2 66.384 48.96C68.048 46.72 68.88 44.544 68.88 42.432C68.88 39.424 66.224 37.088 60.912 35.424L44.016 31.584C40.56 30.816 37.776 29.472 35.664 27.552C33.616 25.568 32.592 23.328 32.592 20.832C32.592 16.992 34.992 13.152 39.792 9.312C42.224 7.328 45.072 5.664 48.336 4.32C51.6 2.91199 55.024 1.856 58.608 1.152C62.256 0.383999 65.744 0 69.072 0C73.808 0 77.84 0.735998 81.168 2.20799C84.56 3.67999 86.672 5.824 87.504 8.64C87.696 9.28 87.792 9.984 87.792 10.752C87.792 14.656 85.84 17.376 81.936 18.912C79.568 19.872 77.552 20.352 75.888 20.352C74.864 20.352 74.064 20.16 73.488 19.776C73.36 19.648 73.296 19.488 73.296 19.296C73.296 18.848 74.192 18.592 75.984 18.528C77.072 18.464 77.968 18.368 78.672 18.24C79.376 18.112 79.888 17.984 80.208 17.856C82.64 16.576 83.856 14.688 83.856 12.192C83.856 10.912 83.504 9.568 82.8 8.16C80.816 4.512 75.856 2.688 67.92 2.688C65.04 2.688 62.064 3.008 58.992 3.648C55.92 4.224 53.008 5.12 50.256 6.336C47.504 7.488 45.168 8.96 43.248 10.752C39.92 13.824 38.256 16.576 38.256 19.008C38.256 20.864 39.152 22.528 40.944 24C42.8 25.408 45.584 26.464 49.296 27.168L60.624 29.28C64.976 30.112 68.496 31.36 71.184 33.024C73.872 34.624 75.216 37.088 75.216 40.416C75.216 43.36 74.48 46.112 73.008 48.672C71.536 51.232 69.552 53.536 67.056 55.584C64.624 57.568 61.84 59.232 58.704 60.576C51.6 63.712 43.216 65.28 33.552 65.28C32.336 65.28 31.12 65.248 29.904 65.184C28.688 65.12 27.504 65.024 26.352 64.896C27.248 65.408 28.368 65.92 29.712 66.432C31.12 66.944 32.72 67.424 34.512 67.872C34.704 67.936 34.8 68.064 34.8 68.256C34.8 68.832 34.128 69.12 32.784 69.12ZM20.112 61.728C18.384 59.808 17.04 57.824 16.08 55.776C14.672 52.576 13.616 48.64 12.912 43.968C12.4 40.576 11.856 38.88 11.28 38.88C10.768 38.88 10.064 39.264 9.168 40.032C8.336 40.8 7.92 42.432 7.92 44.928C7.92 49.792 9.648 54.016 13.104 57.6C14.832 59.392 17.168 60.768 20.112 61.728ZM83.8605 60.192C82.2605 60.192 81.0125 59.456 80.1165 57.984C79.2205 56.448 78.7725 54.976 78.7725 53.568C78.7725 49.728 81.5565 44.352 87.1245 37.44C92.7565 30.464 97.3005 26.976 100.756 26.976C104.02 26.976 105.652 28.704 105.652 32.16C105.652 32.672 105.588 33.216 105.46 33.792C105.396 34.368 105.3 34.976 105.172 35.616C105.3 35.808 105.62 35.904 106.132 35.904C107.86 35.904 109.908 35.296 112.276 34.08C112.213 35.168 109.685 36.736 104.693 38.784C105.397 40.896 103.285 44.928 98.3565 50.88C93.3005 57.088 88.9805 60.192 85.3965 60.192H83.8605ZM85.5885 57.312C88.3405 57.312 91.8605 54.784 96.1485 49.728C100.308 44.8 102.388 41.248 102.388 39.072C101.364 38.496 100.084 37.024 98.5485 34.656C96.3725 34.656 93.2365 37.28 89.1405 42.528C85.1085 47.648 83.1565 51.584 83.2845 54.336C83.3485 56.32 84.1165 57.312 85.5885 57.312ZM110.86 79.68C108.812 79.68 107.02 78.816 105.484 77.088C103.948 75.296 103.212 73.312 103.276 71.136C104.044 72.096 105.068 73.216 106.348 74.496C108.012 76.096 109.644 76.896 111.244 76.896C114.892 76.896 118.828 73.984 123.052 68.16C124.524 66.112 126.028 63.712 127.564 60.96C129.164 58.272 130.668 55.264 132.076 51.936L135.724 43.104L121.612 54.144C117.26 57.536 113.772 59.232 111.148 59.232C109.74 59.232 108.62 58.72 107.788 57.696C106.956 56.672 106.54 55.616 106.54 54.528C106.54 51.776 108.908 47.264 113.644 40.992C118.38 34.656 121.932 31.488 124.3 31.488C126.284 31.488 127.276 32.224 127.276 33.696C127.276 34.272 124.428 37.6 118.732 43.68C113.1 49.696 110.284 53.76 110.284 55.872C110.284 56.704 110.828 57.12 111.916 57.12C113.964 57.12 118.412 54.464 125.26 49.152C128.076 46.912 130.572 44.864 132.748 43.008C134.924 41.152 136.748 39.488 138.22 38.016C138.732 37.376 139.244 36.768 139.756 36.192C140.268 35.552 140.748 34.912 141.196 34.272C142.412 32.864 143.628 32.16 144.844 32.16C146.572 32.16 147.436 32.864 147.436 34.272C147.436 34.528 146.092 36.64 143.404 40.608C141.996 42.784 140.876 44.48 140.044 45.696C139.212 46.848 138.732 47.584 138.604 47.904C136.62 51.744 133.58 57.344 129.484 64.704C123.276 74.688 117.068 79.68 110.86 79.68ZM150.616 61.056C147.736 61.056 146.296 59.232 146.296 55.584C146.296 54.176 146.712 52.512 147.544 50.592C148.44 48.608 149.688 46.528 151.288 44.352C151.288 44.352 150.712 44.896 149.56 45.984C148.408 47.072 147.096 48.448 145.624 50.112C145.368 50.368 145.048 50.496 144.664 50.496C144.408 50.496 144.28 50.336 144.28 50.016C144.28 49.696 144.568 49.152 145.144 48.384L158.392 32.832C160.056 30.912 161.88 29.952 163.864 29.952C165.336 29.952 166.072 30.528 166.072 31.68C166.072 32.128 165.88 32.544 165.496 32.928C164.28 34.08 162.776 35.712 160.984 37.824C159.256 39.936 157.56 42.208 155.896 44.64C154.232 47.072 152.824 49.408 151.672 51.648C150.584 53.824 150.04 55.584 150.04 56.928C150.04 58.08 150.424 58.656 151.192 58.656C151.64 58.656 152.344 58.496 153.304 58.176C154.264 57.792 155.544 57.056 157.144 55.968C158.744 54.816 160.664 53.056 162.904 50.688C163.288 50.304 164.312 49.152 165.976 47.232C167.64 45.312 169.88 42.56 172.696 38.976C177.688 32.768 180.952 29.664 182.488 29.664C184.6 29.664 185.752 30.528 185.944 32.256C186.072 32.832 184.728 34.72 181.912 37.92C178.264 42.336 175.768 45.504 174.424 47.424C171.928 51.072 170.68 53.92 170.68 55.968C170.68 57.376 171.16 58.08 172.12 58.08C173.08 58.08 174.296 57.632 175.768 56.736C177.304 55.776 178.904 54.592 180.568 53.184C182.232 51.712 183.832 50.208 185.368 48.672C186.968 47.072 188.344 45.6 189.496 44.256C189.88 43.808 190.264 43.584 190.648 43.584C191.032 43.584 191.224 43.776 191.224 44.16C191.224 44.288 191.192 44.48 191.128 44.736C191.064 44.992 190.872 45.28 190.552 45.6C189.528 46.752 188.216 48.192 186.616 49.92C185.016 51.584 183.288 53.248 181.432 54.912C179.576 56.576 177.784 57.952 176.056 59.04C174.328 60.128 172.856 60.672 171.64 60.672C170.168 60.672 168.888 60.288 167.8 59.52C166.712 58.688 166.168 57.568 166.168 56.16C166.168 54.752 166.392 53.344 166.84 51.936C167.288 50.464 167.64 49.216 167.896 48.192C164.888 51.712 162.232 54.4 159.928 56.256C157.688 58.112 155.8 59.36 154.264 60C152.728 60.704 151.512 61.056 150.616 61.056ZM196.101 60.192C194.245 60.192 192.517 59.744 190.917 58.848C189.317 57.888 188.517 56.32 188.517 54.144C188.517 51.136 189.573 47.552 191.685 43.392C193.861 39.232 196.325 34.912 199.077 30.432C206.565 18.272 211.877 12.192 215.013 12.192C215.653 12.192 216.293 12.448 216.933 12.96C217.637 13.408 218.021 13.92 218.085 14.496L211.365 23.52C208.741 27.04 206.373 30.304 204.261 33.312C202.149 36.256 200.325 38.912 198.789 41.28C198.021 42.496 197.157 43.872 196.197 45.408C195.237 46.944 194.373 48.544 193.605 50.208C192.901 51.808 192.549 53.44 192.549 55.104C192.549 55.872 192.773 56.576 193.221 57.216C193.669 57.792 194.469 58.08 195.621 58.08C197.669 58.08 200.357 56.992 203.685 54.816C207.013 52.576 210.309 49.504 213.573 45.6C213.893 45.216 214.245 44.864 214.629 44.544C215.013 44.224 215.333 44.064 215.589 44.064C215.909 44.064 216.069 44.256 216.069 44.64C216.069 44.832 215.845 45.216 215.397 45.792C215.013 46.304 214.693 46.72 214.437 47.04L212.133 49.632C210.853 51.04 209.317 52.576 207.525 54.24C205.797 55.904 203.941 57.312 201.957 58.464C200.037 59.616 198.085 60.192 196.101 60.192ZM235.285 26.976C234.197 26.976 233.237 26.624 232.405 25.92C231.637 25.216 231.253 24.416 231.253 23.52C231.253 21.728 232.469 20.832 234.901 20.832C235.797 20.832 236.693 21.152 237.589 21.792C238.485 22.368 238.933 23.104 238.933 24C238.933 24.768 238.517 25.472 237.685 26.112C236.853 26.688 236.053 26.976 235.285 26.976ZM217.525 61.056C216.117 61.056 214.965 60.608 214.069 59.712C213.109 58.752 212.629 57.088 212.629 54.72C212.629 53.376 212.949 51.84 213.589 50.112C214.165 48.32 214.901 46.528 215.797 44.736C216.757 42.944 217.685 41.344 218.581 39.936C222.165 34.112 225.109 31.168 227.413 31.104C227.989 31.104 228.693 31.36 229.525 31.872C230.357 32.32 230.773 32.832 230.773 33.408C230.773 33.408 228.341 36.544 223.477 42.816C218.677 49.024 216.277 53.44 216.277 56.064C216.277 58.112 217.077 59.136 218.677 59.136C219.701 59.136 221.013 58.72 222.613 57.888C224.277 56.992 226.005 55.872 227.797 54.528C229.589 53.184 231.285 51.744 232.885 50.208C234.549 48.672 235.893 47.264 236.917 45.984C237.557 45.152 238.101 44.576 238.549 44.256C239.061 43.936 239.381 43.776 239.509 43.776C239.765 43.776 239.893 43.968 239.893 44.352C239.893 44.672 239.509 45.312 238.741 46.272C238.037 47.232 237.045 48.352 235.765 49.632C234.229 51.168 232.533 52.832 230.677 54.624C228.821 56.416 226.805 57.952 224.629 59.232C222.453 60.448 220.085 61.056 217.525 61.056ZM265.485 6.24C262.861 14.112 258.509 21.984 253.517 27.168C254.669 27.744 256.653 29.088 257.485 29.92C262.349 24.416 267.021 15.904 270.029 7.328L265.485 6.24ZM266.509 21.216C265.037 26.208 262.733 31.264 259.725 34.72C260.813 35.168 262.733 36.128 263.565 36.704C266.381 33.12 269.005 27.552 270.605 22.048L266.509 21.216ZM263.693 15.84L262.221 20.128H294.029V15.84H263.693ZM292.173 15.84V16.864C291.789 46.752 291.341 57.632 289.421 59.744C288.845 60.576 288.141 60.768 286.989 60.768C285.453 60.768 281.677 60.768 277.581 60.448C278.413 61.664 278.925 63.648 279.053 64.928C282.637 65.056 286.541 65.184 288.717 64.992C290.957 64.736 292.365 64.16 293.709 62.304C295.885 59.296 296.333 49.248 296.781 18.4C296.781 17.696 296.781 15.84 296.781 15.84H292.173ZM263.053 52.192V55.968H284.301V52.192H263.053ZM265.933 27.168V31.008H286.093V27.168H265.933ZM257.549 37.28V41.12H288.909V37.28H257.549ZM261.069 43.936V59.296H265.037V43.936H261.069ZM271.373 29.28V53.92H275.597V29.28H271.373ZM281.997 43.872V57.888H285.965V43.872H281.997ZM243.341 10.336C247.181 12.192 251.917 15.264 254.157 17.568L256.973 13.664C254.669 11.424 249.933 8.544 246.029 6.816L243.341 10.336ZM240.013 27.616C243.981 29.344 248.717 32.16 251.021 34.336L253.837 30.368C251.405 28.256 246.605 25.568 242.701 23.968L240.013 27.616ZM241.869 61.344L246.093 64.352C249.421 58.336 253.261 50.4 256.141 43.616L252.365 40.736C249.229 48.032 244.941 56.416 241.869 61.344ZM332.237 29.024V60.896H337.165V29.024H332.237ZM313.229 27.232V31.712H356.621V27.232H313.229ZM314.893 41.376V45.856H355.213V41.376H314.893ZM307.149 58.784V63.264H362.765V58.784H307.149ZM342.221 49.056C345.869 51.744 350.285 55.584 352.333 58.272L355.853 55.392C353.741 52.896 349.261 49.056 345.549 46.56L342.221 49.056ZM332.237 6.304V16.608H337.293V6.304H332.237ZM308.237 13.856V27.424H313.101V18.464H356.493V27.424H361.549V13.856H308.237Z" fill="black"/>
</g>
<defs>
<filter id="filter0_d_1_4" x="0.367996" y="0" width="366.397" height="87.68" filterUnits="userSpaceOnUse" color-interpolation-filters="sRGB">
<feFlood flood-opacity="0" result="BackgroundImageFix"/>
<feColorMatrix in="SourceAlpha" type="matrix" values="0 0 0 0 0 0 0 0 0 0 0 0 0 0 0 0 0 0 127 0" result="hardAlpha"/>
<feOffset dy="4"/>
<feGaussianBlur stdDeviation="2"/>
<feComposite in2="hardAlpha" operator="out"/>
<feColorMatrix type="matrix" values="0 0 0 0 0 0 0 0 0 0 0 0 0 0 0 0 0 0 0.25 0"/>
<feBlend mode="normal" in2="BackgroundImageFix" result="effect1_dropShadow_1_4"/>
<feBlend mode="normal" in="SourceGraphic" in2="effect1_dropShadow_1_4" result="shape"/>
</filter>
</defs>
</svg>
